<svg width="16" height="12" viewBox="0 0 16 12" fill="none" xmlns="http://www.w3.org/2000/svg">
<path fill-rule="evenodd" clip-rule="evenodd" d="M0.125 6C0.125 5.85082 0.184263 5.70774 0.289752 5.60225C0.395242 5.49676 0.538316 5.4375 0.6875 5.4375H13.9546L10.4142 1.89825C10.3086 1.79263 10.2493 1.64937 10.2493 1.5C10.2493 1.35063 10.3086 1.20737 10.4142 1.10175C10.5199 0.996128 10.6631 0.93679 10.8125 0.93679C10.9619 0.93679 11.1051 0.996128 11.2108 1.10175L15.7108 5.60175C15.7631 5.654 15.8047 5.71607 15.8331 5.78441C15.8614 5.85275 15.876 5.92601 15.876 6C15.876 6.07399 15.8614 6.14725 15.8331 6.21559C15.8047 6.28393 15.7631 6.346 15.7108 6.39825L11.2108 10.8983C11.1051 11.0039 10.9619 11.0632 10.8125 11.0632C10.6631 11.0632 10.5199 11.0039 10.4142 10.8983C10.3086 10.7926 10.2493 10.6494 10.2493 10.5C10.2493 10.3506 10.3086 10.2074 10.4142 10.1018L13.9546 6.5625H0.6875C0.538316 6.5625 0.395242 6.50324 0.289752 6.39775C0.184263 6.29226 0.125 6.14919 0.125 6Z" fill="#1C5713"/>
</svg>
